<svg version="1.1" id="divider" xmlns="http://www.w3.org/2000/svg" xmlns:xlink="http://www.w3.org/1999/xlink"
	 viewBox="0 0 282.8 245.6" style="enable-background:new 0 0 282.8 245.6;" xml:space="preserve">
<style type="text/css">
	.st0{fill-rule:evenodd;clip-rule:evenodd;fill:#F2F2F2;}
</style>
<g id="XMLID_12_">
	<path id="XMLID_302_" class="st0" d="M137.4,393.6c0.3,0.3,0.8-0.1,0.3-0.4C137.4,393.3,137.5,393.5,137.4,393.6z"/>
	<path id="XMLID_297_" class="st0" d="M149.8,393.4c0.9-0.8,0.9-2.2,0-3.3C149,391.3,148.9,392.4,149.8,393.4z"/>
	<path id="XMLID_294_" class="st0" d="M149.3,385.5c0.2,0.3,0.5,0.1,0.7-0.2c-0.1-0.1-0.2-0.2-0.3-0.3
		C149.5,385.2,149.4,385.4,149.3,385.5z"/>
	<path id="XMLID_292_" class="st0" d="M-26.8,196.4c0.4,0.3,0.7-0.2,1.1-0.4C-26.1,196.1-26.5,195.9-26.8,196.4z"/>
	<path id="XMLID_283_" class="st0" d="M1.5,184.3c0.1,0.2,0.3,0.2,0.4,0.3c0-0.1,0.1-0.2,0.2-0.3C1.9,183.9,1.7,184,1.5,184.3z"/>
	<path id="XMLID_282_" class="st0" d="M20.1,202.2c0.9-0.6,0.7-1.4-0.1-1.7C19,200.8,19.1,202.1,20.1,202.2z"/>
	<path id="XMLID_280_" class="st0" d="M47.4,227.4c0.1,0.1,0.2,0.2,0.3,0.3c0.1-0.1,0.2-0.2,0.3-0.3
		C47.8,226.9,47.6,227.1,47.4,227.4z"/>
	<path id="XMLID_275_" class="st0" d="M59.6,211.1c0.4,0.4,0.4-0.4,0.7-0.5C60.1,210.6,59.6,210.8,59.6,211.1z"/>
	<path id="XMLID_274_" class="st0" d="M71.7,222.5c0.1,0.1,0.2,0.2,0.3,0.3c0.2-0.2,0.3-0.4,0.1-0.6
		C71.9,222.3,71.8,222.4,71.7,222.5z"/>
	<path id="XMLID_273_" class="st0" d="M71,221.5c0.3,0,0.1-0.1,0.3-0.3C71.1,220.7,70.6,221.2,71,221.5z"/>
	<path id="XMLID_271_" class="st0" d="M52.3,193.8c0.7,1.1,2.5,1.3,3.6,0.6c3.1-2,1.5-7.4-1.7-5.5C52.3,190.1,51.5,192.5,52.3,193.8
		z"/>
	<path id="XMLID_265_" class="st0" d="M29.4,160.1c0.3,0.1,0.6,0.2,0.9-0.2C30,159.8,29.7,159.6,29.4,160.1z"/>
	<path id="XMLID_264_" class="st0" d="M20.6,143.2c-1.1-2.1-5-2.2-6.7-0.7c-1.6,1.4,2.1,2.6,3.2,2.5
		C18.5,144.9,19.9,144.1,20.6,143.2z"/>
	<path id="XMLID_260_" class="st0" d="M90.1,200.8c0.4-1.4,1.7-2.9,2-4.3c-1.7,0.3-1.9,2.6-2.9,3.8c-0.3,0.3-0.8,0.5-1,0.9
		c-1.1,1.4-1.5,5.5,0.3,6.4C91.7,207.2,94.5,202,90.1,200.8z"/>
	<path id="XMLID_259_" class="st0" d="M69.9,186.5c2.1,3.5,6.2,0.5,6.1-2.3c-0.1-2.8-3.4-3.8-5.6-1.7
		C69.6,183.3,69.1,185.1,69.9,186.5z"/>
	<path id="XMLID_258_" class="st0" d="M111.3,227.4c1.5-1.1,1.7-3.7,1.5-5.4C111.9,223.4,110.5,225.6,111.3,227.4z"/>
	<path id="XMLID_257_" class="st0" d="M54.9,159.9c-1.7-1.6-4.1-2.4-5.7-1c-3,2.5-1.6,8,2.6,7c1.2-0.3,2.6-1.8,2.9-3
		C55,161.9,54.4,160.8,54.9,159.9z"/>
	<path id="XMLID_256_" class="st0" d="M89.4,185.8c-0.9-0.6-1.3,0.2-2.2,0.4c-1.2,0.3-2.5-0.3-3.7,0.1c-3.5,1.2-4.9,7-1.7,8.2
		c0.6,0.2,1.9,0.1,2.4-0.1C87.3,193.2,88.7,188.3,89.4,185.8z"/>
	<path id="XMLID_255_" class="st0" d="M59.4,172.1c0.1,0.1,0.2,0.2,0.3,0.3C60.8,172.2,59.6,171,59.4,172.1z"/>
	<path id="XMLID_254_" class="st0" d="M79.2,184.7c-0.2-0.4-0.5-0.3-0.7-0.3C77.5,185.1,79,185.8,79.2,184.7z"/>
	<path id="XMLID_253_" class="st0" d="M66.4,171.2c0.1,3.3,3.8,5.3,5.9,2.9c1-1.1,1.7-2.9,0.8-4.3C71.3,167.2,67.3,168.2,66.4,171.2
		z"/>
	<path id="XMLID_251_" class="st0" d="M56.2,157.3c-1.1,3.4,3.2,5.3,5.3,3c0.5-0.5,1.3-2,1.1-2.9C62.2,154.6,57.8,154.4,56.2,157.3z
		"/>
	<path id="XMLID_250_" class="st0" d="M36,127c-1-0.6-3.6-0.9-5.1-0.3c-0.6,0.2-1.1,0.7-1.7,1c-1.2,0.5-2.5,0.1-3.3,1.6
		c0.5,1.8,2.1,0.6,3.3,0.3C31.3,129,35.1,129.3,36,127z"/>
	<path id="XMLID_249_" class="st0" d="M48.5,149.2c-0.2-0.5-0.6-0.7-1-0.5C46.8,149.3,48,150.2,48.5,149.2z"/>
	<path id="XMLID_247_" class="st0" d="M112.5,210.2c2-0.6,2.3-2.6,2.7-3.9c0.3-0.8,1.2-1.7,0.5-2.4c-2.2,1.3-3.8,3.9-3.8,5.9
		C112.1,210.1,112.3,210,112.5,210.2z"/>
	<path id="XMLID_246_" class="st0" d="M52.7,148.8c2-0.9,4.8-1.3,6.2-3.5c-2.3-0.7-5.2,0.7-6.8,3C52.3,148.5,52.5,148.6,52.7,148.8z
		"/>
	<path id="XMLID_245_" class="st0" d="M85.8,181.2c1.8,3.2,6.8-1.6,4.6-3.8C88.6,175.7,84.3,178.6,85.8,181.2z"/>
	<path id="XMLID_244_" class="st0" d="M72.7,159.7c-1.6-1.1-4.3-0.1-4.9,2.1C69.3,163.9,72.4,162.1,72.7,159.7z"/>
	<path id="XMLID_243_" class="st0" d="M131.8,224.3c1.4-1.7,0.9-4.1,0.6-6c-1,1.9-1.1,3.8-1,5.7
		C131.5,224.2,131.7,224.1,131.8,224.3z"/>
	<path id="XMLID_242_" class="st0" d="M31.5,124.4c0.3,0.2,0.5,0.5,0.8,0.1c-0.1-0.1-0.3-0.3-0.4-0.4
		C31.7,124.1,31.6,124.3,31.5,124.4z"/>
	<path id="XMLID_241_" class="st0" d="M40,131.3c0.9,1.1,3.4,1.7,4.6,0.2c2-2.5-2.8-6.4-5-3.5C39.1,128.7,39.1,130.1,40,131.3z"/>
	<path id="XMLID_240_" class="st0" d="M52.8,142.4c3.3,4.1,9.1-2.6,4.7-5.4C54.8,135.2,50.5,139.7,52.8,142.4z"/>
	<path id="XMLID_239_" class="st0" d="M118.3,206.3c0.4-0.2,0.3-0.5,0.3-0.7c-0.8-0.3-0.8-0.6-1.3-1.3c-0.3,0.1-0.5,0.1-0.8,0.4
		C117,205.6,117.8,205.3,118.3,206.3z"/>
	<path id="XMLID_238_" class="st0" d="M25.3,111.7c0.6,0.7,1.3,1.3,2.1,1.6c0.7,0.2,3.6,0.2,4.1-0.5c0.6-0.8-0.5-2.6-1.5-3.6
		C27.7,107.1,22.1,107.7,25.3,111.7z"/>
	<path id="XMLID_237_" class="st0" d="M95.1,179.7c1.6,1.1,2,3.2,3.5,4.3c1.3,1,2.7,1,4.1,1.3c1.2-0.6,2.2-0.5,3.2-1.2
		c3.9-2.7,3.2-9-1.1-10.4C101.6,172.6,96.9,175.8,95.1,179.7z"/>
	<path id="XMLID_236_" class="st0" d="M132.9,214.3c1-0.8,1.4-3.7,1.5-5c0.1-0.8,0-2.1-0.5-2.6c-1.6,2.1-1.9,4.9-1.8,7.2
		C132.4,214.2,132.6,214.2,132.9,214.3z"/>
	<path id="XMLID_233_" class="st0" d="M138.1,213.4c0.5,0.6,1.1-0.1,0.5-0.5C138.4,212.8,138.1,213.1,138.1,213.4z"/>
	<path id="XMLID_232_" class="st0" d="M143.7,204.7c-1.8,2.8,0.8,7.6,2.9,10.2c0.9,1.1,1.8,1.6,2.6,1c1.6-1,0.4-4.6-0.2-5.7
		c-0.6-1.1-1.7-2.3-2.5-3.3C145.8,205.8,145,204.5,143.7,204.7z"/>
	<path id="XMLID_231_" class="st0" d="M111,175.5c-1.7-0.8-1.7,2.1-0.3,1.4C111.2,176.5,111.2,176,111,175.5z"/>
	<path id="XMLID_230_" class="st0" d="M134.8,200.8c1.3,1.9,3.5-1.2,2.6-2.3C136.3,197.1,133.8,199.3,134.8,200.8z"/>
	<path id="XMLID_228_" class="st0" d="M157.3,213.5c-4,1.7-0.3,8.1,2.5,4.2C160.8,216.2,159.3,213.5,157.3,213.5z"/>
	<path id="XMLID_227_" class="st0" d="M143.3,201.5c1.2-0.7,0.7-2.5-0.1-3.2C142.3,199.3,142,200.8,143.3,201.5z"/>
	<path id="XMLID_225_" class="st0" d="M181.3,237.2c1.3-1,0.3-2,0.8-3.1c-0.5-1.3-1-3.6-2.6-4.1c-0.6,1.5,0,4.7,0.7,6.4
		C180.5,237,180.9,237.2,181.3,237.2z"/>
	<path id="XMLID_224_" class="st0" d="M137,187.7c-2.5,0.4-1.8,4.8,0.1,4.3C138.7,191.5,139.1,188.5,137,187.7z"/>
	<path id="XMLID_223_" class="st0" d="M146.4,201.3c2.4,3.3,5.7-1.1,4.3-3.7c-0.9-1.8-3.3-2.5-4.7-0.3
		C145.2,198.6,145.7,200.3,146.4,201.3z"/>
	<path id="XMLID_221_" class="st0" d="M126.8,176.2c0.3,0.1,0.6,0,0.9-0.4C127.4,175.7,126.9,175.8,126.8,176.2z"/>
	<path id="XMLID_220_" class="st0" d="M131.9,177.1c-1.3,1.1-1.3,2.1-0.9,3.1C132.4,179.8,132.6,178.1,131.9,177.1z"/>
	<path id="XMLID_219_" class="st0" d="M159.3,207.2c1.5-0.3,1.6-1.6,2.6-2.3c1.4-1,3.2-0.5,4.3-1.8c1.2-1.3,1.1-5.1-0.8-6.4
		c-1.7-1.1-3.7,2-4.8,3.6c-0.8,1.1-3.1,5-2.4,6.1C158.6,206.9,159,207.1,159.3,207.2z"/>
	<path id="XMLID_218_" class="st0" d="M184.3,231c0.5,0,0.9-0.5,0.3-1C184.1,230.1,183.7,230.6,184.3,231z"/>
	<path id="XMLID_216_" class="st0" d="M181.8,224.4c-0.2,0.2,0.3,0.4,0.4,0.4C183.2,224.3,181.8,223.5,181.8,224.4z"/>
	<path id="XMLID_215_" class="st0" d="M141.5,184c0.9-0.4,1-1.5,0.4-2.2C141.1,182.2,140.8,183.3,141.5,184z"/>
	<path id="XMLID_214_" class="st0" d="M131,172.6c0.7,0.1,0.5,1.8,1.9,2.4c0.4,0.2,0.7,0,1.4,0c2.6-1.7-0.1-4.7-1.9-3.5
		C132.1,172.2,131.5,172.4,131,172.6z"/>
	<path id="XMLID_213_" class="st0" d="M136.4,176.5c-0.2,0.1-0.4,0.1-0.5,0C134.3,178.1,137.6,178,136.4,176.5z"/>
	<path id="XMLID_210_" class="st0" d="M168.9,194.1c0.9,1.6,0.6,4.1,2.5,5.2c1.5-1.2-0.5-3.1-0.2-4.5c-2.7-1.2-0.9-3-0.6-4.8
		c0.1-0.8-0.4-2.3,0.1-2.9c0.4-0.5,1.5-0.2,2.2-0.6c0.3-0.2,0.4-0.7,0.8-1c0.5-0.4,1.3-0.5,1.6-0.7c0.3-0.3,1.3-1.9,1.6-2.5
		c0.9-1.9,0.3-4.4-0.4-6.4c1-0.6,1.7-2.1,2.9-3.1c0.5-0.4,1.2-0.4,1.5-0.8c0.8-1.2-2.4-4.3-3.7-4.5c-1-0.2-2.8,1-3.4,1.8
		c-0.7,1.1,0.2,2.1-0.5,3.1c-1.9,0.1-4.2-0.9-6.3,0c-2.6,1.2-4.5,4.2-4.5,6.6c0,2.1,1.3,3.7,2.5,5.9c0,0.5-0.8,1-1,1.6
		C162.6,189.3,164.4,198.5,168.9,194.1z"/>
	<path id="XMLID_209_" class="st0" d="M48.8,79.2c0.4-0.2,0.3-0.3,0.4-0.6C48.8,78.2,48.2,78.7,48.8,79.2z"/>
	<path id="XMLID_208_" class="st0" d="M203.1,229.5c1,1.4,2.2,2.7,3.2,2.2c1.5-0.9,1.2-4.3,0.5-5.6c-0.7-1.2-2.7-3.1-3.7-2.4
		c-0.8,0.5-1,2.9-0.9,3.6C202.3,228,202.6,228.8,203.1,229.5z"/>
	<path id="XMLID_206_" class="st0" d="M190.2,214.5c1.7,0.1,1.3-2.5-0.2-2.4C189.1,212.8,189.1,213.7,190.2,214.5z"/>
	<path id="XMLID_205_" class="st0" d="M158.9,180.4c1.1-0.6,0.3-1.8,0.2-2.7c-0.1-1.5,0.4-3.5-1.3-4.8c-0.5,0.7-0.8,1.9-0.7,2.8
		c0.1,0.7,0.7,1.5,0.9,2.3C158.2,178.9,157.6,180.4,158.9,180.4z"/>
	<path id="XMLID_204_" class="st0" d="M181.6,198.3c1.3-1.1,0.4-2.7,0.4-3.9c0.1-1.7,0.9-3.7-0.5-5.4c-0.6,1-1.2,2.5-1.1,3.9
		c0,0.7,0.4,1.3,0.4,2C180.8,196,179.9,197.9,181.6,198.3z"/>
	<path id="XMLID_203_" class="st0" d="M208.3,217.7c1.1-1.1,0.1-2.8-0.8-4.1c-0.7-0.9-1.7-2.1-2.7-2.5
		C204.4,213.2,206.2,216.2,208.3,217.7z"/>
	<path id="XMLID_202_" class="st0" d="M81.6,91.9c0.3,0.3,0.8-0.1,0.3-0.4C81.6,91.6,81.7,91.7,81.6,91.9z"/>
	<path id="XMLID_201_" class="st0" d="M215.3,218c-1.1,0.9,0.2,2.6,1.1,2.1C217.4,219.5,216.6,217.7,215.3,218z"/>
	<path id="XMLID_200_" class="st0" d="M200.5,204.2c0.5-0.9-0.5-1.3-0.9-2.1C199.7,202.8,199.4,204.1,200.5,204.2z"/>
	<path id="XMLID_199_" class="st0" d="M213.3,215.9c1.5-1.4-0.2-2.4-1.2-3.7c-0.5-0.6-0.4-1.5-1.1-1.9c-0.7,0.4-0.5,3.4,0,4.2
		C211.7,215.4,212.6,216,213.3,215.9z"/>
	<path id="XMLID_198_" class="st0" d="M190.1,191.9c0.1-0.3,0.3-0.6-0.2-0.9C189.5,191.3,189.7,191.9,190.1,191.9z"/>
	<path id="XMLID_197_" class="st0" d="M62.5,65.2c0.1,0.1,0.2,0.2,0.3,0.3c0.2,0,0.3-0.3,0.5,0c-0.1-0.4-0.3-0.3-0.4-0.8
		C62.6,64.7,62.8,64.9,62.5,65.2z"/>
	<path id="XMLID_196_" class="st0" d="M159,158.9c0.1-0.1,0.3-0.3,0.4-0.4c-0.1-0.4-0.2-0.5-0.6-0.6
		C158.3,158.2,158.5,158.9,159,158.9z"/>
	<path id="XMLID_195_" class="st0" d="M100.4,98.8c3.6-1.3,4.5-5.4,2-7.7c-2.5-2.3-6.2-1-6.9,2.6C95.3,96.2,97.9,99.1,100.4,98.8z"
		/>
	<path id="XMLID_194_" class="st0" d="M84.7,85.2c0.4-0.3-0.1-1.4-0.6-2C83.3,83.9,84.6,84.6,84.7,85.2z"/>
	<path id="XMLID_193_" class="st0" d="M178.6,176.3c0.3,0.4,0.7-0.1,0.3-0.3C178.6,176,178.8,176.1,178.6,176.3z"/>
	<path id="XMLID_191_" class="st0" d="M212.7,206.9c0.6-0.4,0.9-1.5-0.1-2.2C211.4,204.9,211.6,206.6,212.7,206.9z"/>
	<path id="XMLID_190_" class="st0" d="M91.1,86.1c0.2-0.2,0.3,0,0.3-0.3C91.2,85.3,90.7,85.8,91.1,86.1z"/>
	<path id="XMLID_189_" class="st0" d="M160.8,153.2c0.3,0.5,1-0.3,0.4-0.6C160.8,152.5,160.8,152.9,160.8,153.2z"/>
	<path id="XMLID_188_" class="st0" d="M77.5,70.5c0.1-0.3,0.1-0.5-0.3-0.8C76.9,70,77.1,70.3,77.5,70.5z"/>
	<path id="XMLID_187_" class="st0" d="M190.5,170.9c-3.8,0.5-5.7,5.4-3.2,8.1c1.1,1.2,3.7,2.2,5.2,0.9
		C194.7,177.9,193.7,173,190.5,170.9z"/>
	<path id="XMLID_185_" class="st0" d="M182.1,172.9c0.8-0.7,0.9-1.4,0.2-2.1C181.2,170.9,180.9,172.2,182.1,172.9z"/>
	<path id="XMLID_184_" class="st0" d="M206.6,197.1c0.4,0.2,0.5-0.2,0.8-0.3c0.8,1.7,3.8,3.4,5.1,2.1c1.3-1.2-0.6-4.5-3-4.7
		c-1.1-0.1-3.1,0.5-2.4,2.1c-0.1,0.1-0.3-0.2-0.4-0.1C206.4,196.6,206.6,196.9,206.6,197.1z"/>
	<path id="XMLID_183_" class="st0" d="M71.4,62.8c0.1,0.1,0.3,0.3,0.4,0.4c0-0.3,0.1-0.5-0.3-0.8C71.6,62.5,71.5,62.6,71.4,62.8z"/>
	<path id="XMLID_182_" class="st0" d="M112.7,102.9c0.5-0.4,0.4-0.7,0.3-1C112.1,101.1,111.4,102.9,112.7,102.9z"/>
	<path id="XMLID_181_" class="st0" d="M70.3,60.2c-0.2-0.1-0.1-1.6-0.9-1.4C69,59.3,69.9,59.8,70.3,60.2z"/>
	<path id="XMLID_180_" class="st0" d="M234.2,220.8c0.3,0.1,0.8-0.3,0.3-0.6C234.1,220.3,234.2,220.5,234.2,220.8z"/>
	<path id="XMLID_179_" class="st0" d="M181.6,168c0.3,0.3,0.5,0.3,0.8,0.1c-0.1-0.2,0.1-0.4-0.3-0.6
		C181.8,167.5,181.5,167.8,181.6,168z"/>
	<path id="XMLID_178_" class="st0" d="M89,74.6c0.5,0.7,1.3,1.1,2,0.6c1.9-1.3-0.6-3.9-1.9-2.8C88.5,72.9,88.3,73.6,89,74.6z"/>
	<path id="XMLID_177_" class="st0" d="M242,225.2c0.2,0.3,0.4,0.2,0.6-0.1c-0.1-0.1-0.2-0.2-0.4-0.3
		C242.1,224.9,242.1,225.1,242,225.2z"/>
	<path id="XMLID_176_" class="st0" d="M224.4,207.6c0.1,0.1,0.3,0.3,0.4,0.4c0.3-0.2,0.3-0.2,0.5-0.5c-0.1-0.1-0.3-0.3-0.4-0.4
		C224.5,207.2,224.5,207.2,224.4,207.6z"/>
	<path id="XMLID_175_" class="st0" d="M182,162.4c-0.2,0.2-0.4,0.4-0.4,0.6c0.2,0.2,0.3,0.3,0.5,0.3c0.1-0.1,0.2-0.2,0.3-0.4
		C182.4,162.8,182.2,162.6,182,162.4z"/>
	<path id="XMLID_174_" class="st0" d="M96.7,77.7c1.3,2.1,3.8-0.7,2.2-2C97.7,74.8,95.7,76.2,96.7,77.7z"/>
	<path id="XMLID_172_" class="st0" d="M87.2,65.5c1.6,2.4,3.4-2.3,0.9-2C87.4,63.6,86.6,64.6,87.2,65.5z"/>
	<path id="XMLID_171_" class="st0" d="M209.9,185.4c0.4-0.2,0.3-0.5,0.4-0.7C209.8,184.5,209.3,185,209.9,185.4z"/>
	<path id="XMLID_170_" class="st0" d="M94.7,67.4c0,1.9,2.4,0.4,1.3-0.4C95.6,66.7,95.3,66.8,94.7,67.4z"/>
	<path id="XMLID_169_" class="st0" d="M206.2,176c2.7-2.3-1.4-6.9-4.2-6.6C200,172,203.7,174.9,206.2,176z"/>
	<path id="XMLID_168_" class="st0" d="M196.9,165c-0.6,1.8,1,3.9,2.8,2.9C202.7,166.3,199.5,161.4,196.9,165z"/>
	<path id="XMLID_166_" class="st0" d="M255.8,216.3c0.3,0.3,0.7-0.3,0.3-0.5C255.7,215.9,255.8,215.9,255.8,216.3z"/>
	<path id="XMLID_165_" class="st0" d="M110.8,57.2c-1.6,1.1-0.8,2.9-0.6,4.3c-0.7,0.9-1.5,1.8-2.1,2.6c-0.8,1.1-2.5,2.9-1.4,4
		c1.3,1.3,3.9,2.4,5.8,2.2c1.9-0.2,4.5-1.6,4.2-4c-0.2-1.4-1.5-2.7-2.8-3.8c-0.3-0.3-1-0.5-1.3-0.9
		C111.6,60.3,113.1,58.1,110.8,57.2z"/>
	<path id="XMLID_164_" class="st0" d="M212.1,168.8c1.3-1.4-1.5-4.9-2.7-3.9C208.1,165.9,210.4,169.2,212.1,168.8z"/>
	<path id="XMLID_163_" class="st0" d="M212.6,170.5c1.7,1.4,3.3,2.8,5,2.1c-0.6-2-3.2-2.4-4.6-2.5
		C212.8,170.2,212.7,170.3,212.6,170.5z"/>
	<path id="XMLID_162_" class="st0" d="M230.1,184c-0.9,0.9,0.2,2.3,0.9,3.3c0.7,1.1,1.4,2.4,2.1,3.3c1.2,1.5,4,3.8,5.2,2.4
		c1.3-1.5-2.3-4.3-3.6-5.3C233.1,186.6,231.7,184.2,230.1,184z"/>
	<path id="XMLID_161_" class="st0" d="M213.3,169.5c0.4-0.3,0.6-0.6,0.7-1.1c-0.5-0.6-0.9-0.6-1.4,0
		C212.7,169,212.8,169.1,213.3,169.5z"/>
	<path id="XMLID_160_" class="st0" d="M258.1,210.6c0.6-0.3,0-0.8-0.4-0.9C257.6,210,257.7,210.3,258.1,210.6z"/>
	<path id="XMLID_159_" class="st0" d="M216.3,165.8c1.7-2.7-2.3-4.5-4.4-4.5C210.8,163.4,214.6,165.7,216.3,165.8z"/>
	<path id="XMLID_158_" class="st0" d="M98.2,48.9c0.7-1.5-0.4-3.4-1.3-4.6c-0.7,0.6,0,1.1,0.1,1.7C97,46.9,97.1,47.9,98.2,48.9z"/>
	<path id="XMLID_157_" class="st0" d="M240.8,189c0.3-0.6-0.2-0.7-0.7-1.2C240.2,187.9,240.1,189.2,240.8,189z"/>
	<path id="XMLID_156_" class="st0" d="M212.2,154.7c-1.1,1.2,1.8,3.9,2.9,3C216.4,156.7,213.7,153.8,212.2,154.7z"/>
	<path id="XMLID_155_" class="st0" d="M257.2,200.6c1.5,1.3,3,2.5,4.4,1.5C260.9,200.4,258.6,200.4,257.2,200.6z"/>
	<path id="XMLID_154_" class="st0" d="M211.8,154.3c0.2,0.3,0.4,0.2,0.6-0.1c-0.1-0.1-0.2-0.2-0.3-0.3
		C211.8,154,211.9,154.1,211.8,154.3z"/>
	<path id="XMLID_153_" class="st0" d="M250.6,189.9c0.1-0.1,0.2-0.2,0.3-0.3C250.7,189.1,250.1,189.6,250.6,189.9z"/>
	<path id="XMLID_152_" class="st0" d="M116.9,53c0.6-1.5,1.5-3.4,0.3-4.5C115.8,49.7,116.5,51.6,116.9,53z"/>
	<path id="XMLID_151_" class="st0" d="M223.1,156.6c0.3-0.7-0.8-1.4-1.2-2.1C222.1,155.2,222.3,156.5,223.1,156.6z"/>
	<path id="XMLID_149_" class="st0" d="M228.2,156.3c0.4-1.4-2.9-2.7-3.9-2.6c-0.2,0.1-0.1,0.2-0.2,0.3
		C225.1,155.7,226.9,156,228.2,156.3z"/>
	<path id="XMLID_148_" class="st0" d="M277.8,206.6c0.8-0.6-0.4-1.5-1-1.7C276.8,205.5,277.1,206.2,277.8,206.6z"/>
	<path id="XMLID_147_" class="st0" d="M112.4,29.9c0.1-0.6,0.4-1.3,0.2-1.9c-1.3-2.1-3.5-0.9-3.7,0.7c0.2,0.6,0.7,1.1,1.3,1.6
		c0.6,0.1,1.2,0,1.7-0.2c-0.1,1-0.8,1.5-0.9,2.4c-0.1,1.1,0.7,4.8,2.6,4.9c1.2,0.1,2.8-1.7,3.3-2.8C118,32.4,115.7,26.2,112.4,29.9z
		"/>
	<path id="XMLID_146_" class="st0" d="M125.3,43.3c3-0.7,0.5-4.4-1.1-2.5C123.4,41.6,124,42.9,125.3,43.3z"/>
	<path id="XMLID_145_" class="st0" d="M233.8,150.9c0.1,0.1,0.3,0.1,0.4-0.1c0-0.3-0.2-0.2-0.4-0.4
		C233.6,150.6,233.9,150.7,233.8,150.9z"/>
	<path id="XMLID_144_" class="st0" d="M249.2,163.4c0.5-0.5,1.1-0.3,1.6-1c-0.5-2-3.5-2.2-4.5-1.4
		C246.3,162.4,248.3,162.7,249.2,163.4z"/>
	<path id="XMLID_143_" class="st0" d="M199.9,112.9c0.7-1-1.2-2.5-2.1-2.8c-0.4,0.5-1.2,0.3-1.3,0.8
		C197.1,111.8,198.7,112.6,199.9,112.9z"/>
	<path id="XMLID_142_" class="st0" d="M234.7,147.7c1.5,1.4,4.8,2.4,6,0.7C239.4,146.7,236.6,146,234.7,147.7z"/>
	<path id="XMLID_138_" class="st0" d="M202.7,112.2c-0.3-0.7-1-1.8-1.8-2C200.5,110.8,201.9,112.7,202.7,112.2z"/>
	<path id="XMLID_137_" class="st0" d="M200.7,109.4c0.2,0.3,0.4,0.3,0.6,0.1c0-0.1-0.1-0.3-0.3-0.4
		C201,109.2,200.8,109.3,200.7,109.4z"/>
	<path id="XMLID_136_" class="st0" d="M242.5,150.5c1,0.5,2,1,3,0C244.8,149.3,243.4,149.6,242.5,150.5z"/>
	<path id="XMLID_135_" class="st0" d="M139.4,45c0.4,0.6,0.8,0.3,1.1,0.6C140.8,45.1,139.8,44.3,139.4,45z"/>
	<path id="XMLID_134_" class="st0" d="M214.8,113.9c1.1,0.7,2.9,0.2,3.9-0.8c0.8-0.8,2.8-2.9,2.1-3.7c-0.6-0.7-1.2,0-2.2,0.4
		C217.2,110.6,214.6,111.8,214.8,113.9z"/>
	<path id="XMLID_133_" class="st0" d="M215.2,111.8c0.8-1-0.7-1.4-1.5-2c-1.6-1.2-3.1-3.7-4.7-2.9c-0.4,2.2,2.6,2.6,4,3.6
		C213.8,111.1,214.2,112.2,215.2,111.8z"/>
	<path id="XMLID_132_" class="st0" d="M218.7,117c0.4,0.2,0.8,0.6,1.1,0.6c0.4-0.1,0.8-0.6,1-1C220.1,115.6,219.1,116.1,218.7,117z"
		/>
	<path id="XMLID_130_" class="st0" d="M147.7,38.4c0.3,0.2,0.7,0.2,1-0.2c0.1-0.4-0.3-0.8-0.7-0.7C147.6,37.8,147.6,38.1,147.7,38.4
		z"/>
	<path id="XMLID_129_" class="st0" d="M129.2,19.1c-0.5,0.4,0.3,0.7,0.5,0.9c0,0.8,1,0.9,1.6,1.2c0.2,0.4,0.6,0.4,0.2,0
		C130.6,20.3,130,19.2,129.2,19.1z"/>
	<path id="XMLID_128_" class="st0" d="M133.3,23.1c0-0.4-0.8-0.8-1.1-1.2C132.2,22.3,132.9,23,133.3,23.1z"/>
	<path id="XMLID_127_" class="st0" d="M146.4,33.5c0.1,0.5,0.9,0.9,1.2,1.4C147.4,34.4,147.1,33.5,146.4,33.5z"/>
	<path id="XMLID_126_" class="st0" d="M141.1,28.1c0.5-0.7-0.7-1.2-1.1-1.6C140.2,27,140.3,27.8,141.1,28.1z"/>
	<path id="XMLID_125_" class="st0" d="M142.6,29.6c0.3-0.5-0.4-0.5-0.7-0.9C141.8,29,142.3,29.6,142.6,29.6z"/>
	<path id="XMLID_124_" class="st0" d="M146.5,33.4c-0.9-1.1-1.2-2.1-2.4-3.2C143.3,31.4,146,32.5,146.5,33.4z"/>
	<path id="XMLID_123_" class="st0" d="M139.1,25.5c0.1-0.3,0-0.6-0.3-0.9c-0.1,0.1-0.2,0.2-0.3,0.3
		C138.5,25.2,138.9,25.3,139.1,25.5z"/>
	<path id="XMLID_122_" class="st0" d="M297.6,174.7c0.5-1.3-1.5-1.7-2.4-2C295.8,173.5,296.7,174.8,297.6,174.7z"/>
	<path id="XMLID_121_" class="st0" d="M217,89.6c-1.7-2.2-4.1-1.8-5.2,0.2C212.5,92.8,216.8,92.3,217,89.6z"/>
	<path id="XMLID_120_" class="st0" d="M133.7,12.9c0.5-0.7,1-1.5,0.3-2.2C132.9,11,133.2,12.5,133.7,12.9z"/>
	<path id="XMLID_119_" class="st0" d="M213.7,86.1c2.9-1.5,0.3-4.7-1.4-2.8C211.4,84.3,212.1,86.1,213.7,86.1z"/>
	<path id="XMLID_117_" class="st0" d="M153,22.9c2-1.3,2.6-3.3,1.2-4.9c-0.1,0.1-0.2,0-0.3-0.1C151.7,19,151.9,21.4,153,22.9z"/>
	<path id="XMLID_116_" class="st0" d="M204.4,73.5c2.7,3,7-2.4,3.5-4.6c-0.6-0.4-2.1-0.5-2.7-0.2C203.1,69.5,202.9,71.9,204.4,73.5z
		"/>
	<path id="XMLID_115_" class="st0" d="M282.3,148.5c0.1,0.2,0.7-0.1,0.5-0.4C282.6,147.7,282.3,148.3,282.3,148.5z"/>
	<path id="XMLID_114_" class="st0" d="M210.6,75.7c1.1-0.3,1.4-1.5,0.8-2C210.3,72.8,208.5,74.9,210.6,75.7z"/>
	<path id="XMLID_112_" class="st0" d="M200.5,62.3c1.1,1.8,3.4-0.3,2.3-1.6C201.8,59.6,199.6,60.7,200.5,62.3z"/>
	<path id="XMLID_111_" class="st0" d="M216.5,77.2c0.9,3,6.2,0.6,4.4-1.5C219.7,74.3,217.6,75.6,216.5,77.2z"/>
	<path id="XMLID_110_" class="st0" d="M197.7,54.5c0-0.5,0.6,0.2,1-0.4c-0.8,0.2-2-0.2-2.6,0.4c-0.6,0.5-0.4,1.5-0.1,1.8
		C196.9,57.1,198.4,55.8,197.7,54.5z"/>
	<path id="XMLID_109_" class="st0" d="M173.5,33.1c0.2,0.2,0.4-0.1,0.5,0.2c0.1-1.5,1.4-2.9,1-4.4C173.8,30.3,174.4,31.7,173.5,33.1
		z"/>
	<path id="XMLID_108_" class="st0" d="M226.1,84.8c1,0.5,2.7,0.8,3.8,0c0.9-0.7,1.7-2.1,1.2-2.8C230,80.4,225.7,82.4,226.1,84.8z"/>
	<path id="XMLID_107_" class="st0" d="M165.2,23.6c0-0.5,0.4-0.9,0-1.4C164.7,22.3,165,23.1,165.2,23.6z"/>
	<path id="XMLID_106_" class="st0" d="M193.9,51.9c0.4-0.1,1,0,1.1-0.4C194.6,51,194.2,51.5,193.9,51.9z"/>
	<path id="XMLID_105_" class="st0" d="M170,25.8c0.1-0.4,0.4-0.8,0.1-1.1C169.5,25.1,169.8,25.4,170,25.8z"/>
	<path id="XMLID_103_" class="st0" d="M170.6,24.8c0.3,0.3,0.5-0.8,0.3-1.1C170.4,24,170.7,24.4,170.6,24.8z"/>
	<path id="XMLID_102_" class="st0" d="M220.8,73.3c0.4,1.3,2.1,1.9,2.9,1.5C226.7,73.1,222.1,70.3,220.8,73.3z"/>
	<path id="XMLID_100_" class="st0" d="M185,36.5c0.9,1.4,2.5,2.1,3.5,1.4c1.7-1.2,1.1-4.3-1-4.8C185.8,32.7,184.4,35,185,36.5z"/>
	<path id="XMLID_99_" class="st0" d="M168.6,16.3c-2.7,0.7-0.9,4.4,0.9,3.1C170.6,18.6,170.3,16.6,168.6,16.3z"/>
	<path id="XMLID_98_" class="st0" d="M240,85.2c0.4,0.5,0.8,0.3,1.1,0.1C241.3,84.6,240.1,84.4,240,85.2z"/>
	<path id="XMLID_96_" class="st0" d="M202.2,47.7c0.3,0.1,0.6,0.2,1-0.3C202.8,47.1,202.5,47.3,202.2,47.7z"/>
	<path id="XMLID_94_" class="st0" d="M228.5,70.6C226.1,69.3,228.2,73.6,228.5,70.6L228.5,70.6z"/>
	<path id="XMLID_93_" class="st0" d="M215.3,59.1c0.6,1,2.9,1.4,4,0.7c1.6-1,2.2-3.2,1.5-4.1C218.9,53.3,213.7,56.4,215.3,59.1z"/>
	<path id="XMLID_92_" class="st0" d="M198.9,41.4c1.1-0.7,3.1-0.8,3.6-2.1C201.3,39.5,200.1,40.7,198.9,41.4z"/>
	<path id="XMLID_91_" class="st0" d="M196.1,37.7c1.5,2.4,4.2-0.7,2.6-2.3C197.4,34.1,195.1,36,196.1,37.7z"/>
	<path id="XMLID_90_" class="st0" d="M234.2,75.2c0.4-0.1,1-0.3,1.1-0.8C235.4,72.1,231.9,74.1,234.2,75.2z"/>
	<path id="XMLID_89_" class="st0" d="M184,23.9c2.2-0.5,0.5-3-0.6-1.8C182.9,22.6,183,23.5,184,23.9z"/>
	<path id="XMLID_88_" class="st0" d="M182.5,22.3c1.4-0.4,3.1-2.6,1.8-3.8C182.5,18.5,181.5,21,182.5,22.3z"/>
	<path id="XMLID_87_" class="st0" d="M254.2,91.9c0.4-0.3,0.5-0.6,0.6-1C253.7,89.4,252.6,91.9,254.2,91.9z"/>
	<path id="XMLID_83_" class="st0" d="M266.1,95.9c0.2,0.4,1-0.5,0.6-0.6C266.5,95.5,266.2,95.7,266.1,95.9z"/>
	<path id="XMLID_82_" class="st0" d="M266.9,95c0.4-0.1,1.2-0.7,1.1-1.1C267.4,93.7,267.4,94.7,266.9,95z"/>
	<path id="XMLID_78_" class="st0" d="M193.4,11.9c-2,0.6-2.8,3.1-2.2,4.5C192.8,15.9,194.8,13.5,193.4,11.9z"/>
	<path id="XMLID_73_" class="st0" d="M197,16.5c0.8,0.9,2.3,1.1,3.4-0.1c1.3-1.4-0.3-5.4-2.5-4.3C196.4,12.8,195.7,15,197,16.5z"/>
	<path id="XMLID_72_" class="st0" d="M208.4,23.3C210,21.4,206.2,22.6,208.4,23.3L208.4,23.3z"/>
	<path id="XMLID_71_" class="st0" d="M225.8,29.4c-1.9,0.6-4.6,3.4-4.1,5.2c0.2,0.6,2.8-0.2,3.5-0.7
		C226.6,32.7,227.8,29.5,225.8,29.4z"/>
	<path id="XMLID_60_" class="st0" d="M217.5,11.3c0.3,0,0.7-0.4,0.7-0.7c-0.2-0.4-0.5-0.3-0.7-0.3C217.2,10.7,217,11,217.5,11.3z"/>
	<path id="XMLID_59_" class="st0" d="M227.2,20.4c0.6-0.7,2.3-0.9,2.1-1.9C228.6,18.6,227.8,19.9,227.2,20.4z"/>
	<path id="XMLID_16_" class="st0" d="M222,236.1c1-0.9-0.7-1.7-0.5-2.6C221.3,234,221.4,235.2,222,236.1z"/>
	<path id="XMLID_15_" class="st0" d="M173.4,21.6c0.2-0.1,0.6-1,0.2-1.4C173,20.7,173.7,21.1,173.4,21.6z"/>
	<path id="XMLID_306_" class="st0" d="M181.5,158.1c-0.5-0.5-1.6-0.5-2-0.2c-1.1,0.6-0.5,2-0.9,2.9c-1.7,0-0.9-2.2-1.8-3.4
		c-0.4-0.5-1.1-0.7-1.5-1.1c-0.3-0.4-0.4-1-0.7-1.4c-0.7-0.8-1.5-0.8-2.4-1.5c-2.8,0.2-2.2,1.9-2.7,3.8c-0.3,1.2-0.9,1.7-1.2,2.8
		c-2.2,0.6-4.9,2.3-6.8,0.2c-1.4-1.5-0.2-4.4,2-6c1.2-0.9,2.3-0.5,3.3-1.8c-0.2-0.2,0.1-0.4-0.1-0.6c-1-0.7-2.1-1.2-3.5-0.8
		c-1.5,0.4-2.7,1.6-4,1.6c-1.1,0-2.3-1.1-3.2-0.4c-1.6,1.2-0.2,2.8,0.5,4.2c0,1-0.2,1.9,0.4,2.8c2.2,3.5,7.3,2.3,9.5,3.5
		c1.3,0.7,2.6,2.2,2.6,3.5c0.1,1.7-2.8,2.8-4.3,3.3c-3.4,1.3-5.9,1-9.2,0.4c-3.1-0.6-6-1.4-8.8-1.6c-0.4-0.4-0.9-0.9-1.3-1.3
		c-0.8-1.2,1-2.8-0.6-3.7c-0.8,0.1-1.4,1.2-2.2,1.8c-2.1,1.7-5.1,2.5-7.3,4.4c-1.9,1.6-3.1,2.4-4.9,2.5c-0.7-0.5-1-1.2-1.6-1.6
		c-1-0.6-3.7-0.5-4.5,0.2c-0.3-0.3-0.5-0.4-0.8-0.3c-1.3,0.6-3,0.9-4,1.9c-1.9,2.1,1.4,5.9-2,7.8c-1,0-1.9-0.3-2.4-1.4
		c-0.9-1.8,0.2-4.5-1.2-6.3c-2.4-3.1-5.2-0.6-8.3-0.6c-1.5,0-2.5-0.3-3.7-0.1c-0.4-0.1-0.5-0.7-1.1-1c-2.8-0.5-5.6-0.5-8.4,0
		c-0.2,1.2,1,4-0.9,5.3c-0.7,0.5-2.1,0.4-3-0.9c-1-2.8,3.9-4.2,2-6.9c-0.6-0.8-1.7-1.3-2.6-1.4c-0.6,0-2.4,0.2-3,0.9
		c-0.6,0.8,0.3,2.4-0.6,3.4c-0.2,0.3-0.9,0.4-1.4,1.1c-0.4,0.6-0.1,1.8-0.7,2.6c-1.2,1.8-3.6,2.4-4.7,1.2c-0.7-0.8-0.3-2.6,0.6-3.6
		c1-1,2.1-0.6,2.8-1.4c0.5-0.6,0.1-1.3,0.6-2c0.7-0.9,2.1-1.1,1.6-2.2c-0.4-0.2-0.8-0.3-1.2-0.9c-0.4-0.7,0.6-1.2,0-1.7
		c-1.1-1.1-2,2.4-3.5,1.4c-0.6-1.7,2.9-2.1,2-3.8c-0.3-0.6-1.2-0.7-1.8-1.2c-1.5-1.4-2.8-4.2-4.4-5c-0.9-0.1-1.9,0-2.8-0.5
		c-0.4,0.4-0.9,0.6-1.3,0.6c-0.9-0.4-1.1-1.3-0.1-2c1.1,0.2,2.2,0,3.3-0.9c-0.2-1.9-0.5-3.8-0.8-5.7c-0.4-2.4-0.1-4.9-1.1-7.1
		c-1.2-0.5-2.2,0.8-3.3-0.2c-0.9-0.8-0.7-1.8,0.1-2.4c0.9-0.6,4.8,1.1,2.9-1.7c0.2-0.5,1-1.1,1.2-1.6c0.1-0.6-1.3-1.2-0.5-1.7
		c0.9-0.1,0.9,1.2,1.8,1.7c2.5-2,4.3-5.3,2.6-8c-0.2-0.3-0.6-0.5-0.9-0.9c-0.4-0.6-0.5-1.4-1-1.8c-0.9-0.7-2.9,0.4-4,0.5
		c-0.8-0.3-1.8-1-2.6-1c-0.3,0-2.3,0.5-2.4,0.5c-0.7,0.5-1,2.2-2.3,1.8c-0.4-0.1-0.3-0.6-0.8-0.4c-0.3-0.5-0.1-1-0.5-1.6
		c-1.1,0.4-2,0.1-2.9,1.3c-0.9-1-2.4,0.1-3.6,0.6c-0.8-0.8-2.2-0.8-3.2-0.9c-0.6,0.3-1.1,0.4-1.5,0.8c-1-0.4-2.2,0.2-2.9-0.6
		c-0.5,0.3-1,0.3-1.6,0.4c-0.3-1.2-1.9-0.9-2.4-2.3c-1.4,0.1-2.4-1.2-3.8-1.4c-0.4-0.5-0.3-0.9-0.4-1.4c-2.1-1.2-1.9-3.1-3.5-4.9
		c0.1-1.6-0.8-3.4-1.2-4.9c1-1.3,0.5-2.5,0.2-3.7c0.4-1.4,1.7-2.9,2.3-4.5c0.2-0.5,0-0.9,0.2-1.3c0.3-0.5,0.8-0.7,1.1-1.1
		c0.8-1.1,1-2.9,2.6-3c0.3-2,2.7-2.5,4-3.5c0.4-0.3,0.7-1,1.1-1.3c0.4-0.2,1.2-0.1,1.6-0.2c0.4-0.1,0.7-0.4,1.1-0.6
		c0.4-0.1,0.8-0.1,1.1-0.3c0.5-0.2,0.8-0.8,1.3-1c1.6-0.7,4.1,0.1,5.7-0.1c0.2-0.4,0.5-0.2,0.7-0.5c1.3,0.2,3,0.3,3.9,1.3
		c0.4-0.3,0.8,0.1,1.1-0.4c0.8,0.4,0.8,0.8,1.3,0.3c0.7,0.7,1.6,1.1,2,1.3c0.4-0.4,0.1-0.6,0.6-0.8c1.6,0.8,1.7,3.2,3.7,3.3
		c-0.3,0.6-0.8,0.1-0.8,0.6c0.1,0.5,0.6,0.7,1,0.6c0.3-0.6-0.6-0.6,0.2-1.2c0.8,0.1,0.2,1.1,1.2,1c0,0.3-0.6,0.6-0.4,1
		c0.3-0.1,0.4,0.7,0.8,0.6c0-0.4,0.2-1.1,0.4-1.1c1.1,0.9,2.5,2,4.2,1.5c0.8,1.1,2.3,0.3,3.3,1c1.5-1,3.5-0.4,4.9-0.7
		c0.5-0.1,1-0.6,1.6-0.7c1.1-0.2,2,0.8,3.4,1.1c0.6,0.1,1.6-0.2,2.2,0.1c0.5,0.2,0.7,0.8,1.1,1.1c0.5,0.3,1.1,0.2,1.6,0.5
		c1.1,0.6,1.8,1.8,2.9,2.7c0.2,0.9,0,1.2,0.4,1.8c1.4,1.7,5.6,1.7,2.4,4.1c0,0.9,0.1,1.9,0.2,2.8c2-0.1,4-0.1,5.7-1.8
		c1.6-1.7,1.8-5.3,4.2-4.3c1.8,1.3,0.6,2.6,1.4,3.8c1.2-2.2,0.7-4.3,1.2-6.5c-0.3-0.2-0.5-0.3-0.8-0.6c0-1.4,2.3-2.5,1.7-4
		c-2.4,0-1.2-2.9-1.5-4.3c-0.9-0.8-1.9-2-1.5-2.9c0.5-1,2.3-0.9,3-2.3c-0.1-0.8,0.8-1.6,1.6-2.4c0.6-0.2,1.2,0,1.7-0.4
		c-0.1-1.4,3.3-4.3,2.4-5.6c-0.4-0.6-1.8-0.5-2.4-1c-1.3-1.1-1-3.8-2.5-5c-0.4-0.3-0.8-0.1-1.2-0.7c0.2-1.1,2-2.9,3.2-2.4
		c0.8,0.9,1.3,1.5,2.2,1.8c3.3-1.7,1.7-6.1,4.1-7.5c1,0.7,0.1,1.8-0.1,2.5c-0.2,1-0.3,1.9-0.8,2.9c-0.4,0.9-0.9,2-0.4,2.9
		c1-0.1,2.3-0.2,3.1-0.9c1-0.8,1-2,1.9-3c0.8-0.9,2-1,3-1.8c1-0.8,1.7-1.7,2.8-2.3c-0.4-2.1-1.6-4-1.3-6.4c0.2-1.5,0.8-3.6,1.9-5.1
		c3.4-4.4,6.8-4.9,10.5-5.2c0.3-0.8-0.1-1.5-0.2-2.3c-0.2-0.1-1.2-0.2-0.9-0.7c1.3,0.7,2.5,0.2,3.7-0.8c0.3-1.1-0.6-2.1,0-3
		c0.8-1.3,2-0.7,2.8-1.4c0.8-0.8,0.2-1.9,0.8-2.7c0.9-1.1,2.6-0.6,3.5-1.1c0.6-0.3,0.9-0.9,1.3-1.1c1.3-0.7,3.3-2,4.3-2.1
		c0.9-0.1,2.1,0.6,3.3,0.3c1.1-0.2,2.2-0.9,3.1-0.7c0.7,0.1,1.2,0.7,1.8,1c2,0.7,3.7-0.7,5.7-0.2c1.2,2.1,3.6,3.5,5.3,2.7
		c0.8-1.4-0.4-4.8,1.1-6c0.6-0.5,1.4-0.4,2,0.4c0.7,1,0.4,5.5-0.1,6.6c-0.2,0.4-0.8,0.9-0.8,1.1c0.4,1.2,2.1,2,3.1,2
		c0.3-0.4,0.4-1.1,1-1.2c1,0.8-0.1,1.6,0.3,2.4c0.8,0.9,0.7,2.3,1.6,3.1c1.1,1,2.1,0.8,2.6,1.9c0.4,0.8-0.2,1.8,0.4,2.8
		c0.3,0.6,1.1,0.9,1.5,1.5c0.4,0.5,0.4,1.2,1,1.2c-0.9,1.2-0.6,3.5,1.3,3.4c-0.2,0.2-0.6,0.3-0.6,0.6c1.1,1.6,0,3.3,1.7,5
		c0.7,0.1,1.4-0.9,2.1-1.2c1.6,0,3.7,2.2,2.5,3.4c-0.8,0.9-2-0.3-3.3,0c-0.9,0.2-1.1,0.6-1.8,0.8c0.1,1.3,2.1,2.7,2.3,4
		c1.2,0.2,2.8,1.8,1.9,3c-0.4,0.5-0.9-0.1-1.3,0.4c1.3,1.4,2.1,3.8,3.4,4.4c0.4-0.2,0.8-0.4,1.2-0.5c1.9,0.5,1.3,2.2,1.9,3.1
		c0.7,1,1.4,1.2,2.6,1.4c2.5,1.7,5.1,4.6,2.2,6.5c-3-2.6-2.8-5.2-4.9-7.8c-0.9,0.2-1.9-0.3-2.8-0.7c1,1.8,1.3,3.6,2.5,5.4
		c-0.2,1.1,0.1,2.4,0.4,3.7c0.3,1.3,0.3,2.7,0.8,3.7c0.3,0.5,0.8,0.8,1,1.3c0.5,1.3-0.2,2.7,0.4,4c0.9,0.9,1.9,2,2.8,1.4
		c0-0.7-0.9-1.4-1-2.2c1.3-1.6,3.3-1.7,4.9-1.2c0.8,1.4-1.4,2.3-2.2,3.4c1.3,2.2,3.4,2.3,4.9,3.5c-0.2,0.2-0.1,0.4-0.1,0.6
		c-0.7,0.6-1.5,0.1-1.7,1.2c-0.5-0.1-0.9-0.9-1.2-1c-1.5,0.6-2.3,2-3.8,1.9c-0.6,0-0.9-0.5-1.6-0.3c-0.2,1-0.9,1.9-0.8,2.9
		c-0.9,0.3-1.2,1.2-2.1,1.6c0.7,0.8,0.9,1.5,1.1,2.3c-0.5,0.7-0.7,1.6-1.6,1.6c-0.7-1.7-1.6-4.7-3.7-5.6c0.1,0.4,0.6,0.7,0.2,1
		c-0.4,0-0.8,0.2-1.1-0.3c-0.2-0.6,0.2-1.2,0.9-1.7c1.2-0.3,2.5,1.5,3.8,2.2c0.6-1.5-0.3-2.2-1.6-3.1c0.2-0.3,0.1-0.6,0.4-1
		c0.8,0.3,2.5,0.5,2.7-1c-1.2-0.9-2,0.3-3.3,0.7c-0.8,0.3-1.7,0.1-2.2,0.4c-1.5,1-1.4,2.7-2.6,4c-1.8,2-4.8,2.7-3.9,4.8
		c0.9,0.5,0.6,1.7,1.5,2.7c-0.3,0.5-0.7,0.2-1,0.5c-0.1,0.6-0.4,1.1-0.1,1.7c1.6-0.1,3.7,1,5.1,0.5c-0.9-1.5-1.5-3-2.5-4.5
		c0.4-0.9-0.7-1.8-0.8-2.7c0.5,0.2,1.1,0.9,1.6,1.4c0.2,0.3-0.2,0.7,0,1c1.8,1.5,1.4,3.5,2.9,4.8c1.1-0.5,1.1-1.6,1.7-2.4
		c-0.3-0.8-1.2-1.7-0.6-2.5c0.5,0,1,0.8,1.5,0.8c0.4-0.1,0.3-0.6,0.8-0.6c0.3,0,0.3,0.6,0.7,0.5c3-1.1,6-1.3,9,1.4
		c0.4-0.2,0.8-0.4,1.2-0.4c-0.3,2.4,0.8,4.8,2,7.1c0.6,0.3,1.2-0.1,1.8,0.3c0.1,0.3,0.1,0.6,0.3,1c-0.9,0.6-1.7-0.2-2.6,0.2
		c-1.5,1.1-3.4,2.8-4.2,3.9c0.9,0.4,3-0.5,3.1,1.1c-0.8,1.2-2.3-0.2-3.4-0.1c0.1,1,0.9,1.2,1.2,1.9c0.6,1.2,0.2,2.7,1,3.6
		c1.1,1.2,2.9,0.4,4.1,0.1c1.5-0.4,4.1,0,3.7,1.6c-1.9,1.7-4.9,0-6.8,1.8c-0.6,0.6-2.1,2.4-1.8,3.1c1.1-0.2,2.5,0.7,3.9,0.8
		c0.8,0,1.6-0.5,2.3-0.4c0.8,0.2,2,1.1,2.3,1.9c-1.6,1.2-3.6,0.6-4.9-1c-1.7-0.8-6-0.7-5.3,2.4c1,0.1,1.8,0.8,2.9,0.6
		c0.5-0.1,0.8-0.6,1.3-0.8c1.2-0.4,2.7,0.3,2.6,1.7c-2.4,2-5.3-2.9-7.5,0.4c0.8,1-0.1,1.9,0.1,2.9c1,0.6,2.8-0.2,3.8,0.5
		c1.1,0.6,1.7,2,1,2.7c-0.4,0.3-3-0.1-3.8-0.5c-0.6-0.3-1.1-1-1.7-1.5c-0.9,0.1-2.6,0.9-2.9,1.9c1.6,2.1,4,0.8,5,2.9
		c0,0.1-0.2,0.2-0.1,0.3c-1,1.1-1.6,0-2.4-0.7c-1.6-1.4-3.7-0.8-5.4,0.7c0.2,0.5,1,1,1.4,1.6c1.3-0.3,2.2-2.2,3.3-1.2
		c1.1,0.9,0.6,4.9-1.7,5.1c-1.1-0.6-1.4-1.8-2.1-2.6c-0.5-0.3-0.9,0-1.4,0c-0.5-0.4-1-0.7-1.6-0.9c-1.2,0.7-2.4,0.3-3.6,1.2
		c1.2,1.4,3.3,3.3,2.3,4.3c-1,1.1-2.1-0.9-3.4-1.1c0.8,0.6,0.8,1.5-0.1,1.8c-0.8-0.3-0.2-1.2-0.7-1.9c-0.2-0.2-0.8-0.7-1.1-1
		c-0.9-0.6-2.3-1.2-3.7-1.5c-1.3-0.3-3.1-0.8-3.7-0.3c-1.3,1.1,0.8,2.8-0.3,4.2c0.7,0.3,0.8,1.1,0.3,1.7c-0.4,0.1-0.8,0-1.2-0.5
		c-0.1-0.4,0.4-0.9,0.6-1.3c-1.6-1-2.4-2.9-4.3-3.7c-1,1.3,1.3,2.6-0.2,3.9C180.1,161.6,182.7,159.3,181.5,158.1z M62.1,122.5
		c0.4,0.1,0.4-0.2,0.7-0.5c-0.1,0-0.3,0.1-0.4-0.1C62,122,62.2,122.3,62.1,122.5z M63.2,121.7c-1,0.7,0,2,1,1.5
		c0.2-0.2-0.1-0.4-0.1-0.6c0.4-0.5,0.9-0.7,1.3-0.8C65,121.3,63.9,122,63.2,121.7z M65.6,121.9c0.6,0.1,1.2,0.3,1.7,0
		C66.8,121.3,65.8,121.4,65.6,121.9z M67.4,93.1c0.5-0.4,0.1-0.9,0.4-1.3c-0.7,0.1-0.5-0.4-1.1-0.4C66.4,92.1,66.5,92.7,67.4,93.1z
		 M76.1,98.2c0.5,0.5,1,0.7,1.5,0.3c-0.1-0.1-0.1-0.2-0.1-0.3c-0.2-0.1-0.5,0-0.7,0.2c0.1-0.4,0-0.2-0.4-0.5
		C76.3,97.9,76.2,98.1,76.1,98.2z M121.5,122.3c0.3,0.3,1.7-2.1,0.4-0.6C121.7,121.9,121.8,122.1,121.5,122.3z M191.1,116.5
		c0.3-1.2-0.8-2.3-0.5-3.5c0.7,0.2,0.7,1.3,1.5,1.5c0.5-0.2,0.6-0.7,0.7-1c-1.3-1.6-2.7-1.1-4-0.2c-0.3,0.7,0.6,1,1,1.7
		C190.1,115.6,190.1,117,191.1,116.5z M200.7,77.5c0.2-0.5,0.2-0.9-0.2-1.4C200.1,76.6,200.4,77.1,200.7,77.5z"/>
	<path id="XMLID_1_" class="st0" d="M238.1,142.9c0.4,0.7,0.6,1.4,1.1,1.8c1.1,0.9,2.4,0,3.5,0.3c0.8,0.2,1.6,1.4,2.4,1.5
		c1.7,0.4,2.3-2.3,4-1.9c0.8,0.2,1.1,0.9,1.8,1.1c0.8,0.3,1.6,0.3,2.4-0.4c0.8-0.6,1-1.4,1.5-1.7c1-0.5,2,0.8,3.1,0.3
		c1-0.3,0.9-1.2,2-2c1-0.7,2.3,0,3.2-0.8c1.1-1,0.5-2.7,1.8-3.8c1.1-0.9,2.5-0.3,3.7-1.8c0.7-0.9,0.4-2.2,0.8-3.1
		c0.4-1,1.5-1.8,2.1-3c0.6-1.2,0.2-3.3,0.8-4.3c0.8-1.2,1.9-1.4,1.9-2.6c0-0.8-0.8-1.5-1.2-2.4c0.2-1.4,2.2-2.7,1.3-4.1
		c0.6-0.3,1.6-0.9,1.6-1.7c-0.2-1.4-1.9-1-2.5-1.6c-0.6-0.6-0.3-1.4-0.7-2.3c1.2-0.6,2.2-0.2,3.7-0.4c1.4-0.2,4.5-1.5,2.3-3.4
		c-1.9-1.7-5,0.3-7,0.4c0.1-1.6-1.5-1.6-2.4-2.7c-0.7-0.8-0.3-2.2-1-2.9c-0.6-0.7-2-0.5-2.7-1.3c-0.8-0.8-0.5-1.8-1.1-2.7
		c-1.8,0.1-2-1.5-3.3-2.2c-0.8-0.4-1.8,0.4-2.5,0.1c-1.1-0.5-1.6-1.8-2.5-2.2c-0.7-0.3-1.8-0.1-2.6-0.3c-0.7-0.2-1.2-0.8-1.7-0.9
		c-0.9-0.2-2.2,0.7-3.4,0.6c-0.7,0-1.4-0.7-2.1-0.7c-0.5,0-1.3,0.4-1.9,0.5c-1.1,0.2-2.4-0.2-3,0.1c-0.6,0.3-1,1.3-1.6,1.6
		c-1.1,0.5-2-0.9-3.1-0.2c-0.9,0.6-0.8,1.7-1.7,2.5c-0.9,0.8-2.5,0.3-3.6,1.2c-0.8,0.6-0.7,1.3-1.7,2c1,2.1-1.9,1.5-2.8,2.8
		c-0.5,0.7,0.1,2.3-0.5,3.1c-0.7,1-1.9,1-2.4,2.1c-0.4,0.9,0.4,1.6,0.1,2.7c-2.6,1.8-1.1,3.5-0.4,5.3c-1.2,1.7-2.6,3.3-3,5
		c0.6,0.8,1.2,0,1.8,0.4c0.4,0.9,0.6,1.9,0.1,2.5c-0.9,1.1-4.1,0.5-4.3,2.6c1.4,1.2,2.7,0,4.1-1c0.8,1.3,1.8,1.9,2.4,3.2
		c0.6,1.5,0.2,3.3,0.9,4.7c0.6,1,2.6,2,3.8,3.5c0.5,0.7,0.8,1.6,1.2,2.1c0.3,0.4,1,0.7,1.5,1.1c1.1,1.2,1.3,2.4,2.6,2.8
		C236,143.1,237,142.4,238.1,142.9z"/>
</g>
</svg>
