<svg id="inkpath" xmlns="http://www.w3.org/2000/svg"
	 viewBox="0 0 550.3 529.5">
<g id="XMLID_1_">
	<g id="XMLID_9_">
		<g id="XMLID_10_">
			<g id="XMLID_11_" class="st0">
				<g id="XMLID_21_">
					<g id="XMLID_23_">
						<path id="XMLID_26_" d="M64.2,520.8c3.2,0.2,6.4,0.3,9.6,0.3c1.6,0,3.2-0.1,4.7-0.1c1.6-0.1,3.1-0.2,4.6-0.4
							c3.2-0.3,6.4-0.4,9.5-0.2c3.1,0.2,6.2,0.6,9.2,1c6.1,0.7,12.3,1.6,18.6,0.4c3.9-0.9,7.9-1.3,12-1.5c4-0.2,8.2,0.1,12.3,0.1
							c4.2,0.1,8.4,0.3,12.6,0.2c1.1,0,2.1,0,3.2-0.1c1.1-0.1,2.1-0.2,3.1-0.3c2.1-0.3,4.2-0.7,6.2-1.2c1.9-0.5,3.8-1,5.7-1.6
							l2.8-0.8l2.8-1c3.7-1.3,7.5-2.6,11.2-4l2.8-1l2.8-1.1l5.5-2.3c3.7-1.6,7.4-3,11.1-4.7c3.7-1.6,7.4-3.2,11.1-4.7
							c3.7-1.6,7.4-3.2,11.2-4.5c1.9-0.7,3.8-1.3,5.7-2c1.9-0.7,3.8-1.4,5.7-2c3.9-1.3,7.9-2.2,11.9-3.2c3.8-0.9,7.7-1.9,11.5-2.8
							c3.8-1.1,7.6-2.3,11.3-3.4l2.8-0.9c0.9-0.3,1.9-0.7,2.8-1c1.9-0.7,3.7-1.4,5.6-2c1.9-0.7,3.7-1.4,5.6-2.1
							c1.9-0.7,3.7-1.5,5.5-2.3c1.8-0.8,3.7-1.6,5.5-2.4c1.8-0.8,3.7-1.6,5.5-2.5c3.6-1.8,7.3-3.6,10.9-5.3c3.6-2,7.2-3.9,10.8-5.9
							c0.9-0.5,1.8-1,2.7-1.5l2.7-1.6l5.4-3.2c14.3-8.8,28.5-18.8,43.1-30c3.7-2.9,7.4-5.7,11.1-8.6c3.7-3,7.4-6,11.4-9.1
							c3.8-3.1,7.6-6.3,11.7-9.6c4-3.3,7.9-6.6,12.1-10.1c19.3-16,37.1-36.6,50.5-59.3c13.4-22.7,22.5-47.3,25.1-70.3
							c0.5-4.2,1.3-8.9,2.3-14.1c1-5.1,2.1-10.6,3.2-16.4c1.1-5.7,2.2-11.7,3.2-17.8c0.9-6,1.7-12.2,2-18.2c0.8-12,0.2-23.7-3-33.5
							c-3.2-9.8-9-17.7-18.6-22.4c6.9,16.2,6.4,35,1.9,53.9c-4.5,19-13,38.1-22.3,55.9c0.7-19.4,0.7-38.5-0.3-57.3
							c-1.1-18.8-3.2-37.3-6.8-55c-3.7-17.8-8.9-34.8-16.5-50.7c-7.6-15.8-17.4-30.5-30.5-43.3c20.4,25.3,32,55.2,35.7,87.4
							c3.7,32.2-0.2,66.6-11.3,99.9c-11,33.2-29.1,65.2-52.2,90.9c-11.6,12.8-24.3,24-37.6,33.1c-13.3,9.1-27.1,16-40.6,20.8
							c9.5-9.4,19.2-20.2,28.6-32.8c9.4-12.6,18.5-26.9,26.6-42.8c8.1-15.8,15.3-33.1,21-51.3c5.7-18.1,9.8-37,12-56
							c4.3-37.9,0.8-75.8-15.9-107.2c-8.4-15.7-20.1-29.7-35.9-41.3c-15.9-11.6-36-20.6-61.2-26.5c-15.3-3.6-36.5-5.7-58-4.9
							c32.4,2.3,58.3,8.2,79,17.1c20.7,8.9,36.3,20.7,47.8,34.5c22.9,27.7,29.9,63.5,27.9,100.1c-2,36.6-13,73.8-27.5,105.5
							c-7.2,15.9-15.5,30.4-23.9,43.2c-8.5,12.8-17.1,23.9-25.4,33.6c-7.6,8.9-15.2,16.8-22.7,24.4c-7.5,7.5-15,14.6-22.7,21.9
							c-7.8,7.2-15.8,14.4-24.4,22c-4.2,3.9-8.8,7.6-13.3,11.6c-2.4,1.9-4.7,3.8-7.1,5.9l-1.8,1.5c-0.6,0.5-1.2,1-1.8,1.5l-3.7,3
							c-1.4,0.9-2.9,1.8-4.3,2.7c-1.4,0.9-3,1.7-4.4,2.6l-4.4,2.7c-1.5,0.9-2.9,1.9-4.5,2.7c-3.1,1.8-6.1,3.6-9.2,5.4
							c-1.5,1-3.1,1.8-4.7,2.7l-4.8,2.7l-4.9,2.8c-1.6,0.9-3.3,1.8-5,2.7c-3.4,1.8-6.8,3.6-10.1,5.4L153,466
							c-1.7,0.9-3.5,1.8-5.3,2.6l-5.3,2.5l-10.8,5.1l-11,4.9l-5.5,2.5l-5.6,2.3c-3.8,1.6-7.5,3.1-11.3,4.7c-3.3,1.4-7.1,2.7-11,4.2
							c-4,1.5-8.1,3.1-12.4,4.6c-4.3,1.5-8.8,3-13.2,4.5c-2.2,0.7-4.4,1.5-6.7,2.2c-2.2,0.7-4.4,1.4-6.6,2
							C31,514,15.5,517.1,10,517.6c9.2-0.8,19.4-2,28.2-2.9c-1.7,0.4-3.4,0.8-5.3,1.1c-1.9,0.3-3.8,0.6-5.8,0.8
							c1.9-0.1,3.9-0.2,5.8-0.3c2-0.1,3.9-0.3,5.6-0.6c-2.9,0.5-5.9,0.9-7,1.3c4.6,0,11-1.1,14.5-1.7c1-0.2,3.9-0.8,6.9-1.5
							c3-0.6,6-1.5,7.4-1.5c-3.5,1.3-7.5,2.2-11.3,3.1c-3.8,0.8-7.5,1.5-10.4,2.1c2.5,0,4.9-0.2,7.3-0.2c-3,0.6-8.8,0.8-10.3,1.2
							c6.2,0,11.6-0.4,18-0.4c2.6,0,5.1,0,7.5-0.1c2.4-0.1,4.8-0.2,7.3-0.6c-2.9,0.5-6.4,0.9-9.6,1.3c-3.2,0.4-6.2,0.7-8.3,1.1
							c2.8,0.3,5.7,0.4,8.5,0.2c-0.3,0.1-0.5,0.2-0.6,0.4c1.3,0,2.9,0.2,4.3,0.2c0.1,0.2,0.4,0.4,0.1,0.6c0-0.1,0-0.3,0-0.4"/>
						<path id="XMLID_25_" d="M54.5,508.2c6-1.5,14.4-3.9,19.9-4.8"/>
					</g>
				</g>
			</g>
		</g>
	</g>
</g>
</svg>
