<?xml version="1.0" encoding="utf-8"?>
<!-- Generator: Adobe Illustrator 19.0.0, SVG Export Plug-In . SVG Version: 6.00 Build 0)  -->
<svg version="1.1" id="Layer_1" xmlns="http://www.w3.org/2000/svg" xmlns:xlink="http://www.w3.org/1999/xlink" x="0px" y="0px"
	 viewBox="0 0 167.8 105" style="enable-background:new 0 0 167.8 105;" xml:space="preserve">
<style type="text/css">
	.st0{fill:#F2F2F2;}
</style>
<g>
	<path class="st0" d="M0,83.1c0.7,1.2,2.7,1.7,4,1.9l0.1-0.3l0.2-0.1C2.9,83.4,1.5,82.4,0,83.1z"/>
	<path class="st0" d="M7.6,86.4l-3.5-1.6C5.2,85.5,6.5,85.8,7.6,86.4z"/>
	<path class="st0" d="M34.7,85.9c-2.7-2.1-5.6-4-8.5-6L34.7,85.9z"/>
	<path class="st0" d="M26.2,80l-5.3-3.7C22.7,77.5,24.4,78.7,26.2,80z"/>
	<path class="st0" d="M38.8,85.8l0.9,0.8C39.5,86.3,39.1,86,38.8,85.8z"/>
	<path class="st0" d="M19.3,75.2c-0.1,0.8,1.1,1.4,1.5,1.4l0.1-0.3l0.2-0.1C20.6,75.5,20,74.6,19.3,75.2z"/>
	<path class="st0" d="M41.8,84l-2.9-2.5C39.9,82.2,40.8,83.3,41.8,84z"/>
	<path class="st0" d="M47.4,82.4c-0.2-0.8-0.6-1.2-1.2-0.9C46.5,82.3,46.8,82.7,47.4,82.4z"/>
	<path class="st0" d="M42.3,81.1c0.3,0.2,0.5,0.3,0.8,0.3C42.9,81,42,80.4,42.3,81.1z"/>
	<path class="st0" d="M11,98.5c0-1-0.9-1.2-1.4-0.3C10,99.2,10.5,99,11,98.5z"/>
	<path class="st0" d="M115.2,100.6C114.4,98.2,115.8,102.5,115.2,100.6L115.2,100.6z"/>
	<path class="st0" d="M43,80.1c0.6,0.6,1.3,0.9,2,1.4L43,80.1z"/>
	<path class="st0" d="M123.9,103l-0.5-3.9C123.3,100.4,123.5,101.8,123.9,103z"/>
	<path class="st0" d="M40.8,81.6l0.8,0.7C41.4,81.8,41,81.9,40.8,81.6z"/>
	<path class="st0" d="M36.3,65.9l6.4,6.3C40.6,70.1,38.5,67.7,36.3,65.9z"/>
	<path class="st0" d="M52.6,82.9l1.5,1.2C53.6,83.7,53.2,83.1,52.6,82.9z"/>
	<path class="st0" d="M133.5,66.9c0.1,0.3,0.1,0.6,0.3,0.9L133.5,66.9z"/>
	<path class="st0" d="M84.7,23.4l0.1,0.9C84.8,24,84.8,23.7,84.7,23.4z"/>
	<path class="st0" d="M82.2,81.3c-0.1-0.9-0.4-1.7-1.2-2.6C80.5,79.7,81.4,81.3,82.2,81.3z"/>
	<path class="st0" d="M91.3,76.4c0.4-2.6,0-5.3-0.9-8c-1.2,0.3-0.2,2.5-0.1,3.8C90.4,73.7,89.9,75.2,91.3,76.4z"/>
	<path class="st0" d="M88.4,46.7c0.4-0.5,0.8-1,1.1-1.4C89,40.6,84.9,45.7,88.4,46.7z"/>
	<path class="st0" d="M83.9,45C83.8,43.4,83,45.1,83.9,45L83.9,45z"/>
	<path class="st0" d="M84.6,22.6l0.2,0.2c0.2-1-0.1-2-0.2-3c-0.8,0.2-0.8,1.9-0.2,2.8L84.6,22.6z"/>
	<path class="st0" d="M84.7,23.4l-0.1-0.9C84.6,22.9,84.6,23.1,84.7,23.4z"/>
	<path class="st0" d="M95.4,87.3c-0.4,0.7-0.4,1.4-0.1,2.1C96.3,89.5,96.3,87.4,95.4,87.3z"/>
	<path class="st0" d="M96.4,74.1C96.3,72.5,95.5,74.2,96.4,74.1L96.4,74.1z"/>
	<path class="st0" d="M96.6,70.5c-0.2-0.5,0.1-2-0.6-1.7C96.3,69.2,95.8,70.7,96.6,70.5z"/>
	<path class="st0" d="M96.7,72C96.7,70.4,95.9,72.1,96.7,72L96.7,72z"/>
	<path class="st0" d="M97.6,89.3l0.2-0.1c-0.1-1.9-0.3-4.8-2.3-6.1c-1.3,2.4,1.2,3.9,2,6.5L97.6,89.3z"/>
	<path class="st0" d="M97.6,89.3c0.2,0.2,0.3,0.4,0.4,0.6L97.6,89.3z"/>
	<path class="st0" d="M59.3,77.7c1-0.8,1.2-3.3,0.3-4.9C58.4,73.6,58.1,76.1,59.3,77.7z"/>
	<path class="st0" d="M63.8,24.9c0,0.2,0.1,0.4,0.1,0.7L63.8,24.9z"/>
	<path class="st0" d="M53.2,43.3c0.6,1.5,1,3.3,1.7,4.8L53.2,43.3z"/>
	<path class="st0" d="M68.8,14.8l0.2-0.1c0.2-0.6-0.3-1.9-0.9-1.3c0.2,0.6,0,1.1,0.6,1.7L68.8,14.8z"/>
	<path class="st0" d="M57.9,56.9c1.2,2.6,2,5.8,3.1,8.1c0.7,1.5,1.7,3.9,3.2,3.4c-2.6-6.8-5.7-13.7-9.1-20.6l-0.1,0.3l-0.2,0.1
		C54.8,51.1,56.4,53.8,57.9,56.9z"/>
	<path class="st0" d="M99.7,85c-0.1-0.2-0.2-0.3-0.2-0.5l-2.8-7.6c1.1,2.9,0.8,6.7,2.5,9.2C99.6,85.9,99.7,85.3,99.7,85z"/>
	<path class="st0" d="M81.3,24.5L81.2,23C81.1,23.5,81.2,24.1,81.3,24.5z"/>
	<path class="st0" d="M53.2,43.3l0.2-0.1c-1.7-3.7-1.9-8.4-4.4-11.4c-0.2,0.2-0.3,0.4-0.5,0.6c1,3.7,2.6,7.4,4.5,11.2L53.2,43.3z"/>
	<path class="st0" d="M68.8,14.8l0.1,0.7C69,15.2,69,15,68.8,14.8z"/>
	<path class="st0" d="M79.6,4.3c-0.5,0.5-0.1,1.1,0.3,1.7C80.6,5.5,80.1,4.3,79.6,4.3z"/>
	<path class="st0" d="M80.5,19.6c0,0.6,0.2,1.3,0.4,1.9C81.5,20.9,81.3,19,80.5,19.6z"/>
	<path class="st0" d="M80.1,50.1c0.5-1.5,0-3-0.3-4.5C78.4,47,79.1,49.4,80.1,50.1z"/>
	<path class="st0" d="M73.4,61.1c0.3,0.7,0.2,1.6,0.6,2.3L73.4,61.1z"/>
	<path class="st0" d="M76.7,70.9c0.9-2-0.4-6.1-2.6-7.8L74,63.4l-0.2,0.1C74,66.3,75.6,68.5,76.7,70.9z"/>
	<path class="st0" d="M70,20.1c0.5,2,0.2,4,1.4,6.1C71.8,24.3,71.3,21.3,70,20.1z"/>
	<path class="st0" d="M99.9,82.4c-0.3-0.6-0.6-0.8-0.9-0.5c0.2,0.4,0.1,0.7,0.4,1.1C99.6,82.8,99.7,82.6,99.9,82.4z"/>
	<path class="st0" d="M113.6,51.5c-0.6,0.8-1.1,1.5-0.5,2.3C113.8,53.1,113.9,52.3,113.6,51.5z"/>
	<path class="st0" d="M35.2,40.5c0.4,1,1.1,1.7,1.6,2.5L35.2,40.5z"/>
	<path class="st0" d="M113.5,80.8c-0.5,0.5-0.6,1-0.2,1.5C113.8,81.8,113.6,81.3,113.5,80.8z"/>
	<path class="st0" d="M112.6,93.2c0-0.8,0.5-1.5-0.4-2.4C111.3,91.5,111.9,93.7,112.6,93.2z"/>
	<path class="st0" d="M109.6,90.5l0.2,0.5C109.7,90.9,109.7,90.7,109.6,90.5z"/>
	<path class="st0" d="M113.1,84.4l0-0.9C113.1,83.8,113,84.1,113.1,84.4z"/>
	<path class="st0" d="M120.6,87.2l-0.2-0.1l-0.1-0.3c-0.6,1-0.9,2-0.7,3C120.3,88.9,120.8,88,120.6,87.2z"/>
	<path class="st0" d="M109.8,91.1c0,0.3,0.1,0.7,0.3,0.9L109.8,91.1z"/>
	<path class="st0" d="M125.5,55.8c-1.7,2.5-0.8,6.9-0.6,10.2C127.6,63.6,124.9,59,125.5,55.8z"/>
	<path class="st0" d="M133.4,65.6c-0.4-0.2,0-1.4-0.6-0.9C132.8,64.9,133,66.1,133.4,65.6z"/>
	<path class="st0" d="M121.5,60c-0.1-0.3,0.1-1.7-0.6-1.3C121,59,120.8,60.4,121.5,60z"/>
	<path class="st0" d="M121.4,84c0.6-0.8,0.7-1.5,0.5-2.3C121.3,82.4,121.3,83.2,121.4,84z"/>
	<path class="st0" d="M120.3,87l0.2-0.6C120.4,86.6,120.4,86.8,120.3,87z"/>
	<path class="st0" d="M114.7,77.2c-0.1,1-0.5,2-0.2,3L114.7,77.2z"/>
	<path class="st0" d="M111.5,79.6c0.3,0.5-0.1,1,0.1,1.5C112.1,80.8,112.1,79.3,111.5,79.6z"/>
	<path class="st0" d="M111.6,83.1l-0.1-0.6C111.5,82.6,111.5,82.8,111.6,83.1z"/>
	<path class="st0" d="M109.2,61.5c0.4,3.4,1.1,6.6,2,8.2c1.1-1.9,0.7-4.9,0.5-6.8c-0.5-4.2-1.4-8.8-2.5-13c1.1-0.1,0.5-5.3-1.2-3.5
		c-1.1,1.2,0.5,3,0.8,4.7C109.3,53.7,108.8,57.9,109.2,61.5z"/>
	<path class="st0" d="M103.6,41.1c0-0.7,0.3-1.4-0.3-2.2c-0.8,0.1-1.2,0.6-1.3,1.6C102.5,41.5,103,41.2,103.6,41.1z"/>
	<path class="st0" d="M101.1,95.3c-0.3-0.4,0.3-1.8-0.4-1.5C100.9,94.2,100.3,95.6,101.1,95.3z"/>
	<path class="st0" d="M109.6,90.5l0.2-0.1c0.3-0.9-0.1-1.6-0.7-1.5c-0.6,0.4,0,0.9-0.3,1.3c0.2,0.4,0.5,0.6,0.8,0.7L109.6,90.5z"/>
	<path class="st0" d="M111.9,104.7c-0.4-0.5,0-0.9-0.6-1.3c-0.4,0.4-0.6,0.8-0.7,1.2C111.1,105.2,111.5,105.2,111.9,104.7z"/>
	<path class="st0" d="M102,96.2c0.8-1.5,0.3-4.1-0.6-5C101.6,92.9,100.6,94.5,102,96.2z"/>
	<path class="st0" d="M109.2,94.8l0-0.6C109.1,94.4,109.1,94.6,109.2,94.8z"/>
	<path class="st0" d="M109.1,93.4l0,0.8C109.2,93.9,109.2,93.7,109.1,93.4z"/>
	<path class="st0" d="M110.7,86c-0.2-0.3,0-0.6-0.3-0.9C109.8,85.3,110.5,86.5,110.7,86z"/>
	<path class="st0" d="M109.3,105l0.1,0.6C109.4,105.4,109.4,105.2,109.3,105z"/>
	<path class="st0" d="M110.3,97.3c-0.5,0.6,0,1.3,0.4,1.9C111.1,98.6,110.7,97.4,110.3,97.3z"/>
	<path class="st0" d="M108.6,100.2c0.7-0.6,0.6-1.3,0.2-1.9C108.5,98.9,108.3,99.6,108.6,100.2z"/>
	<path class="st0" d="M81.6,28.3l0.3,2.7C81.8,30.1,81.7,29.2,81.6,28.3z"/>
	<path class="st0" d="M38.2,47.9c2.4,2.1,4.8,6.5,7.3,7.2c-2.7-4-5.6-9.1-8.7-12.4L36.7,43l-0.2,0.1C37,44.7,38.4,46.4,38.2,47.9z"
		/>
	<path class="st0" d="M38.1,85.6l0.1-0.3l0.2-0.1c-1.9-2-3.8-3.2-5.7-3.5L32.7,82l-0.2,0.1C34.3,83.9,36.2,84.8,38.1,85.6z"/>
	<path class="st0" d="M16.7,72.3L32.7,82C27.4,78.8,22.1,75.4,16.7,72.3z"/>
	<path class="st0" d="M37.4,79.1c0.3,0.2,0.5,0.3,0.8,0.3C38,79,37.1,78.5,37.4,79.1z"/>
	<path class="st0" d="M4.1,65.4c3.3,2.7,6.8,4.7,10.3,6.8L4.1,65.4z"/>
	<path class="st0" d="M25.5,26.9c0.9,1.6,2.1,2.2,3,3.6c2.3,3.4,3.6,8.1,6.6,10.2l0-0.2l0.2,0c0.9-0.9,1.7,0.1,2.5,0.1
		c2-0.8,4.3-2.5,5-5.1c1.5-5.7-3.9-12.8-7.6-11.7c-1.7,0.5-2.1,2.3-3.5,2.8c-1.1-1.5-1.4-3.2-2.7-3.6c1.4,2.9,3,5.7,1.2,8.4
		c-3-3.6-4.2-6.6-7.1-10.4c-0.5,1.9,1.2,2.9,1.8,3.9C25.1,25.5,25.3,26.4,25.5,26.9z"/>
	<path class="st0" d="M42.2,58.6l1,1.8C43,59.8,42.7,59,42.2,58.6z"/>
	<path class="st0" d="M20.1,22.5l9.6,14.8C26.6,32.3,23.5,27.2,20.1,22.5z"/>
	<path class="st0" d="M38.2,50.9l0.1-0.3l0.2-0.1c0.1-0.1,0.2-0.2,0.3-0.3l1.6,1.8c-0.5-0.7-1-1.5-1.6-1.8c0,0,0,0,0.1-0.1l-0.2,0
		l0-0.2c-1.4-1.7-2.9-4-3.9-5.3l-0.1,0.3l-0.2,0.1C35.3,46.8,36.6,49.7,38.2,50.9z"/>
	<path class="st0" d="M40.4,52c0.2,0.3,0.5,0.6,0.7,0.8L40.4,52z"/>
	<path class="st0" d="M29.7,37.3c1.6,2.5,3.2,5.1,4.9,7.6L29.7,37.3z"/>
	<path class="st0" d="M39.4,52.4l3.2,4.7C41.7,55.3,40.5,53.9,39.4,52.4z"/>
	<g>
		<path class="st0" d="M105.1,101.8c-0.3-0.6-0.4-1.5-1.1-1.6l-0.1,0.3l-0.1,0.3c-0.3,0.7,0.2,1.4-0.4,2.1c-1.1-0.1-1.1-4.1-2.4-2.3
			c0.2,1.2,0.7,2.4,1,3.6h1.8C104.3,103.4,104.6,102.8,105.1,101.8z"/>
		<path class="st0" d="M97.3,103c-1.3-2-1.5-4.9-2.9-6.6c-0.9,0.7,0,1.4-0.7,2.1c-1.9,0.3-3.6-3.7-3.3-5.7c0.4,0.5,0,0.9,0.6,1.3
			c1.8-3.5,0.7-7.1,1.2-10.6c-2.1,0.7-0.5,4.9-1.6,7c-0.7,0-1.8,1.5-2.8,0.7c-1.1-0.8-1.4-4.4-2.5-5.9c-0.5-0.6-1.5-0.9-2.3-1.6
			c-0.4-0.4-0.8-1.3-1.2-1.8c-0.6-0.6-1.4-0.5-1.9-1c-1.6-1.7-2.3-4.6-3.1-5.5c-1.1-1.3-3.2-1.7-4.5-0.9c-0.2,0.7,0.6,1.5,0.6,2.2
			c-1.8-0.4-3.1-3.1-4.2-4.9c-1.9-3.2-0.9-8.7-4-9.4c-0.4,2,0.9,3.3,1.6,5.4c0.6,1.8,0.7,4.3,1.4,6.1c0.4,0.9,1.2,1.7,1.5,2.6
			c0.5,2-0.3,4.4-1,6.2c-2.6-1.6-4.6-6.5-6.8-7c-2.1,2.2-0.6,4.5-1.4,6.8c-1,0.7-2-0.3-3,0.1c-1,1.4-1.1,2.9-2.2,4.4
			c-0.5-0.3-0.9-0.4-1.4-1.1c-0.7,1,0.6,2.2-0.6,3.2c-0.6-1.2-2-2.4-2.1-3.5c0.5-0.8,1-0.5,1.4-0.6c-0.5-1-1.8-2.1-1.8-3.1
			c0.8,0.6,1.6,1.6,2.5,1.4l-0.1-0.2l0.2-0.2c-2.8-4.1-6.7-9.2-10-10.8l-0.1,0.3l-0.2,0.1c2.7,3.2,6.4,6,6.9,10.6
			c-0.5,0.3-1-0.1-1.6-0.1c0.3,0.8,1.7,2.4,1.9,3.7c-2.7-1.5-5.4-2.6-8-4.7l-0.1,0.3l-0.2,0.1c0.1,0.4,1,0.9,0.6,1.3L41.8,84
			l-0.2,0.1c1.9,2.5,4.7,4.1,6.1,5.5c-1.1-0.3-2.2-0.7-3.3-0.8c-0.4-1.6-1.8-2-2.8-2.3c0.2,0.3,0.5,0.6,0.3,0.9
			c-0.7-0.5-1.4-1-2.2-1l-0.1,0.3l-0.2,0.1c0.6,1.1,2.4,0.8,2,2.5c-2.2-0.6-4.4-2.7-6.6-3.6l-0.1,0.3L34.5,86c2.2,1.5,4.1,4.7,4,7.7
			c-1.4,0.3-2.7-2.2-4.1-0.2c-0.2,1,1.2,0.8,0.9,1.8c-2,0.3-3.9-2.2-5.9-2.4c-0.1,1.4,1.9,1.6,1.3,2.9c-1.1,1.5-2.3-0.1-3.3-0.4
			c-1-0.3-1.7,0.4-2.3,0.1c-0.6-0.4-1-1.6-1.7-2c-1-0.7-2.8-0.6-4.2-1.3c-4-1.9-8.1-5.4-11.9-6l0.2,0.3l0,0.4
			c0.5,0.6,1.6,0.6,1.2,1.8c5.9,2.5,12,3.6,16.9,12c-1.6-0.2-2.1,1.9-1.9,3.8h74.6C98,104,97.6,103.6,97.3,103z"/>
		<path class="st0" d="M125.4,103.3c0-1.7,0.9-4.5-0.5-5.6c-1.1,1.7-0.1,3.6-0.9,5.3c0-0.1-0.1-0.1-0.1-0.2l0,0.2l-0.2,0
			c-0.3,0.4-0.6,0.9-0.8,1.3h3.7C126.3,103.8,125.9,103.4,125.4,103.3z"/>
		<path class="st0" d="M118.3,102c-2-3.4-0.7-8.3-2.8-11.3c-1.2,1.4-0.7,3,0.3,4.5c0,0.8-0.1,1.9,0.1,2.8c0.4,2,1.4,4.3,1.5,6.2h3
			C119.8,103.3,118.8,102.9,118.3,102z"/>
	</g>
</g>
</svg>
