<?xml version="1.0" encoding="utf-8"?>
<!-- Generator: Adobe Illustrator 19.0.0, SVG Export Plug-In . SVG Version: 6.00 Build 0)  -->
<svg version="1.1" id="Layer_1" xmlns="http://www.w3.org/2000/svg" xmlns:xlink="http://www.w3.org/1999/xlink" x="0px" y="0px"
	 viewBox="-285 408.9 24 24" style="enable-background:new -285 408.9 24 24;" xml:space="preserve">
<style type="text/css">
	.st0{fill:#00ADB5;}
</style>
<path class="st0" d="M-280,415.9c2.8,0,5,2.2,5,5c0,2.8-2.2,5-5,5s-5-2.2-5-5C-285,418.1-282.8,415.9-280,415.9z M-268.9,428
	c-0.1,0.3-0.1,0.6-0.1,0.9c0,2.2,1.8,4,4,4s4-1.8,4-4c0-2.2-1.8-4-4-4c-1.2,0-2.2,0.5-2.9,1.3l-5.5-2.9c-0.2,0.6-0.5,1.2-0.9,1.8
	C-274.4,425-268.9,428-268.9,428z M-261,412.9c0-2.2-1.8-4-4-4s-4,1.8-4,4c0,0.3,0,0.6,0.1,0.9l-5.5,2.9c0.4,0.5,0.7,1.1,0.9,1.8
	l5.5-2.9c0.7,0.8,1.8,1.3,2.9,1.3C-262.8,416.9-261,415.1-261,412.9z"/>
</svg>
